<svg width="186" height="45" viewBox="0 0 186 45" fill="none" xmlns="http://www.w3.org/2000/svg">
<path d="M22.0764 22.0767L22.275 22.0347H38.7932L45.0001 28.2416H28.2415L22.0764 22.0767Z" fill="#273F38"/>
<path d="M16.7587 22.0342L0 22.0343L6.20688 28.2412H16.7585L16.7587 22.0342Z" fill="#273F38"/>
<path d="M22.2752 22.0345L22.0765 22.0766L28.2413 28.2414V45H22.9654L16.7585 38.7931H22.0344V22.0344H16.7585V16.7587H22.0344V0L28.2413 6.20689V16.7586L22.0344 16.7587V22.0344L22.2752 22.0345Z" fill="#4E7E70"/>
<path d="M38.7935 22.0347L45.0004 28.2416V22.9657L38.7935 16.7588V22.0347Z" fill="#4E7E70"/>
<path d="M63.9462 9.068C63.8622 8.984 63.7062 8.87 63.4782 8.726C63.2622 8.582 62.9922 8.444 62.6682 8.312C62.3562 8.18 62.0142 8.066 61.6422 7.97C61.2702 7.862 60.8922 7.808 60.5082 7.808C59.8362 7.808 59.3262 7.934 58.9782 8.186C58.6422 8.438 58.4742 8.792 58.4742 9.248C58.4742 9.596 58.5822 9.872 58.7982 10.076C59.0142 10.28 59.3382 10.454 59.7702 10.598C60.2022 10.742 60.7422 10.898 61.3902 11.066C62.2302 11.27 62.9562 11.522 63.5682 11.822C64.1922 12.11 64.6662 12.494 64.9902 12.974C65.3262 13.442 65.4942 14.066 65.4942 14.846C65.4942 15.53 65.3682 16.118 65.1162 16.61C64.8642 17.09 64.5162 17.48 64.0722 17.78C63.6282 18.08 63.1242 18.302 62.5602 18.446C61.9962 18.578 61.3962 18.644 60.7602 18.644C60.1242 18.644 59.4882 18.578 58.8522 18.446C58.2162 18.314 57.6042 18.128 57.0162 17.888C56.4282 17.636 55.8882 17.336 55.3962 16.988L56.4942 14.846C56.6022 14.954 56.7942 15.098 57.0702 15.278C57.3462 15.446 57.6822 15.62 58.0782 15.8C58.4742 15.968 58.9062 16.112 59.3742 16.232C59.8422 16.352 60.3162 16.412 60.7962 16.412C61.4682 16.412 61.9782 16.298 62.3262 16.07C62.6742 15.842 62.8482 15.518 62.8482 15.098C62.8482 14.714 62.7102 14.414 62.4342 14.198C62.1582 13.982 61.7742 13.796 61.2822 13.64C60.7902 13.472 60.2082 13.292 59.5362 13.1C58.7322 12.872 58.0602 12.62 57.5202 12.344C56.9802 12.056 56.5782 11.696 56.3142 11.264C56.0502 10.832 55.9182 10.292 55.9182 9.644C55.9182 8.768 56.1222 8.036 56.5302 7.448C56.9502 6.848 57.5142 6.398 58.2222 6.098C58.9302 5.786 59.7162 5.63 60.5802 5.63C61.1802 5.63 61.7442 5.696 62.2722 5.828C62.8122 5.96 63.3162 6.134 63.7842 6.35C64.2522 6.566 64.6722 6.8 65.0442 7.052L63.9462 9.068ZM71.5113 18.68C70.7553 18.68 70.0713 18.554 69.4593 18.302C68.8473 18.038 68.3253 17.684 67.8933 17.24C67.4613 16.784 67.1253 16.268 66.8853 15.692C66.6573 15.104 66.5433 14.486 66.5433 13.838C66.5433 12.938 66.7413 12.116 67.1373 11.372C67.5453 10.628 68.1213 10.034 68.8653 9.59C69.6213 9.134 70.5093 8.906 71.5293 8.906C72.5613 8.906 73.4433 9.134 74.1753 9.59C74.9073 10.034 75.4653 10.628 75.8493 11.372C76.2453 12.104 76.4433 12.896 76.4433 13.748C76.4433 13.892 76.4373 14.042 76.4253 14.198C76.4133 14.342 76.4013 14.462 76.3893 14.558H69.0993C69.1473 15.038 69.2853 15.458 69.5133 15.818C69.7533 16.178 70.0533 16.454 70.4133 16.646C70.7853 16.826 71.1813 16.916 71.6013 16.916C72.0813 16.916 72.5313 16.802 72.9513 16.574C73.3833 16.334 73.6773 16.022 73.8333 15.638L75.9033 16.214C75.6753 16.694 75.3453 17.12 74.9133 17.492C74.4933 17.864 73.9953 18.158 73.4193 18.374C72.8433 18.578 72.2073 18.68 71.5113 18.68ZM69.0453 13.028H73.9773C73.9293 12.548 73.7913 12.134 73.5633 11.786C73.3473 11.426 73.0593 11.15 72.6993 10.958C72.3393 10.754 71.9373 10.652 71.4933 10.652C71.0613 10.652 70.6653 10.754 70.3053 10.958C69.9573 11.15 69.6693 11.426 69.4413 11.786C69.2253 12.134 69.0933 12.548 69.0453 13.028ZM83.5287 11.156C82.7967 11.156 82.1427 11.3 81.5667 11.588C80.9907 11.864 80.5767 12.266 80.3247 12.794V18.5H77.9127V9.068H80.1267V11.084C80.4627 10.436 80.8887 9.926 81.4047 9.554C81.9207 9.182 82.4667 8.978 83.0427 8.942C83.1747 8.942 83.2767 8.942 83.3487 8.942C83.4207 8.942 83.4807 8.948 83.5287 8.96V11.156ZM89.1246 18.68C88.3686 18.68 87.6846 18.554 87.0726 18.302C86.4606 18.038 85.9386 17.684 85.5066 17.24C85.0746 16.784 84.7386 16.268 84.4986 15.692C84.2706 15.104 84.1566 14.486 84.1566 13.838C84.1566 12.938 84.3546 12.116 84.7506 11.372C85.1586 10.628 85.7346 10.034 86.4786 9.59C87.2346 9.134 88.1226 8.906 89.1426 8.906C90.1746 8.906 91.0566 9.134 91.7886 9.59C92.5206 10.034 93.0786 10.628 93.4626 11.372C93.8586 12.104 94.0566 12.896 94.0566 13.748C94.0566 13.892 94.0506 14.042 94.0386 14.198C94.0266 14.342 94.0146 14.462 94.0026 14.558H86.7126C86.7606 15.038 86.8986 15.458 87.1266 15.818C87.3666 16.178 87.6666 16.454 88.0266 16.646C88.3986 16.826 88.7946 16.916 89.2146 16.916C89.6946 16.916 90.1446 16.802 90.5646 16.574C90.9966 16.334 91.2906 16.022 91.4466 15.638L93.5166 16.214C93.2886 16.694 92.9586 17.12 92.5266 17.492C92.1066 17.864 91.6086 18.158 91.0326 18.374C90.4566 18.578 89.8206 18.68 89.1246 18.68ZM86.6586 13.028H91.5906C91.5426 12.548 91.4046 12.134 91.1766 11.786C90.9606 11.426 90.6726 11.15 90.3126 10.958C89.9526 10.754 89.5506 10.652 89.1066 10.652C88.6746 10.652 88.2786 10.754 87.9186 10.958C87.5706 11.15 87.2826 11.426 87.0546 11.786C86.8386 12.134 86.7066 12.548 86.6586 13.028ZM104.292 18.5H101.88V13.208C101.88 12.452 101.748 11.9 101.484 11.552C101.22 11.204 100.854 11.03 100.386 11.03C100.062 11.03 99.732 11.114 99.396 11.282C99.072 11.45 98.778 11.684 98.514 11.984C98.25 12.272 98.058 12.608 97.938 12.992V18.5H95.526V9.068H97.704V10.814C97.944 10.406 98.25 10.064 98.622 9.788C98.994 9.5 99.42 9.284 99.9 9.14C100.392 8.984 100.908 8.906 101.448 8.906C102.036 8.906 102.516 9.014 102.888 9.23C103.272 9.434 103.56 9.716 103.752 10.076C103.956 10.424 104.094 10.82 104.166 11.264C104.25 11.708 104.292 12.158 104.292 12.614V18.5ZM106.389 18.5V9.068H108.801V18.5H106.389ZM106.389 7.754V5.36H108.801V7.754H106.389ZM116.629 18.014C116.425 18.098 116.179 18.194 115.891 18.302C115.603 18.41 115.291 18.494 114.955 18.554C114.631 18.626 114.301 18.662 113.965 18.662C113.521 18.662 113.113 18.584 112.741 18.428C112.369 18.272 112.069 18.026 111.841 17.69C111.625 17.342 111.517 16.892 111.517 16.34V10.922H110.275V9.068H111.517V6.008H113.929V9.068H115.909V10.922H113.929V15.53C113.941 15.854 114.031 16.088 114.199 16.232C114.367 16.376 114.577 16.448 114.829 16.448C115.081 16.448 115.327 16.406 115.567 16.322C115.807 16.238 115.999 16.166 116.143 16.106L116.629 18.014ZM118.048 20.336C118.264 20.384 118.462 20.426 118.642 20.462C118.834 20.498 118.996 20.516 119.128 20.516C119.356 20.516 119.542 20.456 119.686 20.336C119.842 20.228 119.992 20.024 120.136 19.724C120.28 19.436 120.43 19.028 120.586 18.5L116.86 9.068H119.362L121.9 16.034L124.132 9.068H126.436L122.476 20.372C122.332 20.792 122.11 21.17 121.81 21.506C121.522 21.854 121.156 22.124 120.712 22.316C120.28 22.52 119.794 22.622 119.254 22.622C119.062 22.622 118.87 22.604 118.678 22.568C118.486 22.544 118.276 22.496 118.048 22.424V20.336ZM142.594 5.72V18.5H140.128V13.046H134.332V18.5H131.848V5.72H134.332V10.886H140.128V5.72H142.594ZM144.273 15.71C144.273 15.098 144.441 14.564 144.777 14.108C145.125 13.64 145.605 13.28 146.217 13.028C146.829 12.776 147.531 12.65 148.323 12.65C148.719 12.65 149.121 12.68 149.529 12.74C149.937 12.8 150.291 12.896 150.591 13.028V12.524C150.591 11.924 150.411 11.462 150.051 11.138C149.703 10.814 149.181 10.652 148.485 10.652C147.969 10.652 147.477 10.742 147.009 10.922C146.541 11.102 146.049 11.366 145.533 11.714L144.759 10.13C145.383 9.722 146.019 9.416 146.667 9.212C147.327 9.008 148.017 8.906 148.737 8.906C150.081 8.906 151.125 9.242 151.869 9.914C152.625 10.586 153.003 11.546 153.003 12.794V15.8C153.003 16.052 153.045 16.232 153.129 16.34C153.225 16.448 153.375 16.514 153.579 16.538V18.5C153.363 18.536 153.165 18.566 152.985 18.59C152.817 18.614 152.673 18.626 152.553 18.626C152.073 18.626 151.707 18.518 151.455 18.302C151.215 18.086 151.065 17.822 151.005 17.51L150.951 17.024C150.543 17.552 150.033 17.96 149.421 18.248C148.809 18.536 148.185 18.68 147.549 18.68C146.925 18.68 146.361 18.554 145.857 18.302C145.365 18.038 144.975 17.684 144.687 17.24C144.411 16.784 144.273 16.274 144.273 15.71ZM150.141 16.196C150.273 16.052 150.381 15.908 150.465 15.764C150.549 15.62 150.591 15.488 150.591 15.368V14.414C150.303 14.294 149.991 14.204 149.655 14.144C149.319 14.072 149.001 14.036 148.701 14.036C148.077 14.036 147.561 14.174 147.153 14.45C146.757 14.714 146.559 15.068 146.559 15.512C146.559 15.752 146.625 15.98 146.757 16.196C146.889 16.412 147.081 16.586 147.333 16.718C147.585 16.85 147.885 16.916 148.233 16.916C148.593 16.916 148.947 16.85 149.295 16.718C149.643 16.574 149.925 16.4 150.141 16.196ZM157.46 18.5L153.986 9.068H156.488L158.864 16.304L161.258 9.068H163.544L160.088 18.5H157.46ZM168.877 18.68C168.121 18.68 167.437 18.554 166.825 18.302C166.213 18.038 165.691 17.684 165.259 17.24C164.827 16.784 164.491 16.268 164.251 15.692C164.023 15.104 163.909 14.486 163.909 13.838C163.909 12.938 164.107 12.116 164.503 11.372C164.911 10.628 165.487 10.034 166.231 9.59C166.987 9.134 167.875 8.906 168.895 8.906C169.927 8.906 170.809 9.134 171.541 9.59C172.273 10.034 172.831 10.628 173.215 11.372C173.611 12.104 173.809 12.896 173.809 13.748C173.809 13.892 173.803 14.042 173.791 14.198C173.779 14.342 173.767 14.462 173.755 14.558H166.465C166.513 15.038 166.651 15.458 166.879 15.818C167.119 16.178 167.419 16.454 167.779 16.646C168.151 16.826 168.547 16.916 168.967 16.916C169.447 16.916 169.897 16.802 170.317 16.574C170.749 16.334 171.043 16.022 171.199 15.638L173.269 16.214C173.041 16.694 172.711 17.12 172.279 17.492C171.859 17.864 171.361 18.158 170.785 18.374C170.209 18.578 169.573 18.68 168.877 18.68ZM166.411 13.028H171.343C171.295 12.548 171.157 12.134 170.929 11.786C170.713 11.426 170.425 11.15 170.065 10.958C169.705 10.754 169.303 10.652 168.859 10.652C168.427 10.652 168.031 10.754 167.671 10.958C167.323 11.15 167.035 11.426 166.807 11.786C166.591 12.134 166.459 12.548 166.411 13.028ZM184.044 18.5H181.632V13.208C181.632 12.452 181.5 11.9 181.236 11.552C180.972 11.204 180.606 11.03 180.138 11.03C179.814 11.03 179.484 11.114 179.148 11.282C178.824 11.45 178.53 11.684 178.266 11.984C178.002 12.272 177.81 12.608 177.69 12.992V18.5H175.278V9.068H177.456V10.814C177.696 10.406 178.002 10.064 178.374 9.788C178.746 9.5 179.172 9.284 179.652 9.14C180.144 8.984 180.66 8.906 181.2 8.906C181.788 8.906 182.268 9.014 182.64 9.23C183.024 9.434 183.312 9.716 183.504 10.076C183.708 10.424 183.846 10.82 183.918 11.264C184.002 11.708 184.044 12.158 184.044 12.614V18.5ZM60.7062 25.756H63.0102L64.4682 29.986L65.9442 25.756H68.2302L66.0342 31.57L67.6542 35.638L71.2722 25.72H73.9722L68.8602 38.5H66.7182L64.4682 33.136L62.2362 38.5H60.0942L55.0002 25.72H57.6642L61.3002 35.638L62.8842 31.57L60.7062 25.756ZM78.1558 38.68C77.3998 38.68 76.7158 38.554 76.1038 38.302C75.4918 38.038 74.9698 37.684 74.5378 37.24C74.1058 36.784 73.7698 36.268 73.5298 35.692C73.3018 35.104 73.1878 34.486 73.1878 33.838C73.1878 32.938 73.3858 32.116 73.7818 31.372C74.1898 30.628 74.7658 30.034 75.5098 29.59C76.2658 29.134 77.1538 28.906 78.1738 28.906C79.2058 28.906 80.0878 29.134 80.8198 29.59C81.5518 30.034 82.1098 30.628 82.4938 31.372C82.8898 32.104 83.0878 32.896 83.0878 33.748C83.0878 33.892 83.0818 34.042 83.0698 34.198C83.0578 34.342 83.0458 34.462 83.0338 34.558H75.7438C75.7918 35.038 75.9298 35.458 76.1578 35.818C76.3978 36.178 76.6978 36.454 77.0578 36.646C77.4298 36.826 77.8258 36.916 78.2458 36.916C78.7258 36.916 79.1758 36.802 79.5958 36.574C80.0278 36.334 80.3218 36.022 80.4778 35.638L82.5478 36.214C82.3198 36.694 81.9898 37.12 81.5578 37.492C81.1378 37.864 80.6398 38.158 80.0638 38.374C79.4878 38.578 78.8518 38.68 78.1558 38.68ZM75.6898 33.028H80.6218C80.5738 32.548 80.4358 32.134 80.2078 31.786C79.9918 31.426 79.7038 31.15 79.3438 30.958C78.9838 30.754 78.5818 30.652 78.1378 30.652C77.7058 30.652 77.3098 30.754 76.9498 30.958C76.6018 31.15 76.3138 31.426 76.0858 31.786C75.8698 32.134 75.7378 32.548 75.6898 33.028ZM84.5392 25.36H86.9512V35.476C86.9512 35.908 87.0232 36.202 87.1672 36.358C87.3112 36.502 87.5092 36.574 87.7612 36.574C87.9532 36.574 88.1512 36.55 88.3552 36.502C88.5592 36.454 88.7392 36.394 88.8952 36.322L89.2192 38.158C88.8952 38.314 88.5172 38.434 88.0852 38.518C87.6532 38.602 87.2632 38.644 86.9152 38.644C86.1592 38.644 85.5712 38.446 85.1512 38.05C84.7432 37.642 84.5392 37.066 84.5392 36.322V25.36ZM90.2521 25.36H92.6641V35.476C92.6641 35.908 92.7361 36.202 92.8801 36.358C93.0241 36.502 93.2221 36.574 93.4741 36.574C93.6661 36.574 93.8641 36.55 94.0681 36.502C94.2721 36.454 94.4521 36.394 94.6081 36.322L94.9321 38.158C94.6081 38.314 94.2301 38.434 93.7981 38.518C93.3661 38.602 92.9761 38.644 92.6281 38.644C91.8721 38.644 91.2841 38.446 90.8641 38.05C90.4561 37.642 90.2521 37.066 90.2521 36.322V25.36ZM104.749 38.5H102.337V33.208C102.337 32.452 102.205 31.9 101.941 31.552C101.677 31.204 101.311 31.03 100.843 31.03C100.519 31.03 100.189 31.114 99.853 31.282C99.529 31.45 99.235 31.684 98.971 31.984C98.707 32.272 98.515 32.608 98.395 32.992V38.5H95.983V29.068H98.161V30.814C98.401 30.406 98.707 30.064 99.079 29.788C99.451 29.5 99.877 29.284 100.357 29.14C100.849 28.984 101.365 28.906 101.905 28.906C102.493 28.906 102.973 29.014 103.345 29.23C103.729 29.434 104.017 29.716 104.209 30.076C104.413 30.424 104.551 30.82 104.623 31.264C104.707 31.708 104.749 32.158 104.749 32.614V38.5ZM111.22 38.68C110.464 38.68 109.78 38.554 109.168 38.302C108.556 38.038 108.034 37.684 107.602 37.24C107.17 36.784 106.834 36.268 106.594 35.692C106.366 35.104 106.252 34.486 106.252 33.838C106.252 32.938 106.45 32.116 106.846 31.372C107.254 30.628 107.83 30.034 108.574 29.59C109.33 29.134 110.218 28.906 111.238 28.906C112.27 28.906 113.152 29.134 113.884 29.59C114.616 30.034 115.174 30.628 115.558 31.372C115.954 32.104 116.152 32.896 116.152 33.748C116.152 33.892 116.146 34.042 116.134 34.198C116.122 34.342 116.11 34.462 116.098 34.558H108.808C108.856 35.038 108.994 35.458 109.222 35.818C109.462 36.178 109.762 36.454 110.122 36.646C110.494 36.826 110.89 36.916 111.31 36.916C111.79 36.916 112.24 36.802 112.66 36.574C113.092 36.334 113.386 36.022 113.542 35.638L115.612 36.214C115.384 36.694 115.054 37.12 114.622 37.492C114.202 37.864 113.704 38.158 113.128 38.374C112.552 38.578 111.916 38.68 111.22 38.68ZM108.754 33.028H113.686C113.638 32.548 113.5 32.134 113.272 31.786C113.056 31.426 112.768 31.15 112.408 30.958C112.048 30.754 111.646 30.652 111.202 30.652C110.77 30.652 110.374 30.754 110.014 30.958C109.666 31.15 109.378 31.426 109.15 31.786C108.934 32.134 108.802 32.548 108.754 33.028ZM121.096 38.68C120.292 38.68 119.524 38.548 118.792 38.284C118.06 38.02 117.43 37.63 116.902 37.114L117.766 35.548C118.33 36.004 118.882 36.34 119.422 36.556C119.974 36.772 120.502 36.88 121.006 36.88C121.474 36.88 121.846 36.796 122.122 36.628C122.41 36.46 122.554 36.208 122.554 35.872C122.554 35.644 122.476 35.47 122.32 35.35C122.164 35.218 121.936 35.104 121.636 35.008C121.348 34.912 120.994 34.804 120.574 34.684C119.878 34.456 119.296 34.234 118.828 34.018C118.36 33.802 118.006 33.532 117.766 33.208C117.538 32.872 117.424 32.446 117.424 31.93C117.424 31.306 117.58 30.772 117.892 30.328C118.216 29.872 118.66 29.518 119.224 29.266C119.8 29.014 120.472 28.888 121.24 28.888C121.912 28.888 122.548 28.996 123.148 29.212C123.748 29.416 124.294 29.752 124.786 30.22L123.814 31.75C123.334 31.378 122.878 31.108 122.446 30.94C122.014 30.76 121.576 30.67 121.132 30.67C120.88 30.67 120.64 30.7 120.412 30.76C120.196 30.82 120.016 30.922 119.872 31.066C119.74 31.198 119.674 31.39 119.674 31.642C119.674 31.87 119.734 32.05 119.854 32.182C119.986 32.302 120.178 32.41 120.43 32.506C120.694 32.602 121.012 32.71 121.384 32.83C122.14 33.046 122.776 33.268 123.292 33.496C123.82 33.724 124.216 34.006 124.48 34.342C124.744 34.666 124.876 35.116 124.876 35.692C124.876 36.628 124.534 37.36 123.85 37.888C123.166 38.416 122.248 38.68 121.096 38.68ZM129.99 38.68C129.186 38.68 128.418 38.548 127.686 38.284C126.954 38.02 126.324 37.63 125.796 37.114L126.66 35.548C127.224 36.004 127.776 36.34 128.316 36.556C128.868 36.772 129.396 36.88 129.9 36.88C130.368 36.88 130.74 36.796 131.016 36.628C131.304 36.46 131.448 36.208 131.448 35.872C131.448 35.644 131.37 35.47 131.214 35.35C131.058 35.218 130.83 35.104 130.53 35.008C130.242 34.912 129.888 34.804 129.468 34.684C128.772 34.456 128.19 34.234 127.722 34.018C127.254 33.802 126.9 33.532 126.66 33.208C126.432 32.872 126.318 32.446 126.318 31.93C126.318 31.306 126.474 30.772 126.786 30.328C127.11 29.872 127.554 29.518 128.118 29.266C128.694 29.014 129.366 28.888 130.134 28.888C130.806 28.888 131.442 28.996 132.042 29.212C132.642 29.416 133.188 29.752 133.68 30.22L132.708 31.75C132.228 31.378 131.772 31.108 131.34 30.94C130.908 30.76 130.47 30.67 130.026 30.67C129.774 30.67 129.534 30.7 129.306 30.76C129.09 30.82 128.91 30.922 128.766 31.066C128.634 31.198 128.568 31.39 128.568 31.642C128.568 31.87 128.628 32.05 128.748 32.182C128.88 32.302 129.072 32.41 129.324 32.506C129.588 32.602 129.906 32.71 130.278 32.83C131.034 33.046 131.67 33.268 132.186 33.496C132.714 33.724 133.11 34.006 133.374 34.342C133.638 34.666 133.77 35.116 133.77 35.692C133.77 36.628 133.428 37.36 132.744 37.888C132.06 38.416 131.142 38.68 129.99 38.68Z" fill="#333333"/>
</svg>
